<svg xmlns="http://www.w3.org/2000/svg" viewBox="0 0 2125.99 505.12"><defs><style>.cls-1{fill:#a02240;}.cls-2{fill:#562930;}.cls-3{fill:#070707;}.cls-4{fill:#020202;}.cls-5{fill:#fdfdfd;}.cls-6{fill:#050505;}.cls-7{fill:#562f37;}.cls-8{fill:#582c34;}.cls-9{fill:#fcfcfc;}.cls-10{fill:#562b31;}.cls-11{fill:#e6c5cc;}.cls-12{fill:#fbfbfb;}.cls-13{fill:#faf9fa;}.cls-14{fill:#fbfafa;}</style></defs><g id="Capa_2" data-name="Capa 2"><g id="Capa_1-2" data-name="Capa 1"><rect class="cls-1" width="2125.99" height="500"/><path class="cls-2" d="M2068.54,481.58c28.05,44.52-198.72,10.28-236.82,20.44-27.59-41.89-1-87.31,25.76-121.87-79.79,83.09-9,127.48-44.52,121.85-16.45-29.23-6.63-67.76,10.89-94.19,4.28-9-12.93-20.1,4.25-30.41,7.74-6.37,11.84,9,16.24,2.94,24.82-32.16,57.32-62.08,59.85-107.06,1-6.06-1.89-4.1-4.11-7.75,9.41-15.31,13.36-28.61,6.75-46.18-3-12.77-28.47-18.51-27-1.06.16,2.68,1.81,6-.83,7.8-90.7-20.41-120.7-130.93-30-173.12,23.18-10.13,56.1-13,83.14-4.81,3.41.77,6,3.17,9.72,2.61,2.72,0,.22,2.48,4.09,1.89,1.07.26,2.74-1,3,1.47,1.29,1.48,5.22-1.26,5.65,2.24C2109.06,135.61,2010.69,349.63,2068.54,481.58Z"/><path d="M1849.59,365.52c1.18,7.66-11.22,14.19-14.77,21.35-9-25.16-30.17,7.66-12.23,16.4C1801.1,431,1793.5,469.09,1806.7,502c-44.88-4.59-77.06,20.42-60.72-43.74,7.1-9.28-24.25-3.7-14.1-15.88,4.87-3.1,10-5.36,15.95-4.69,16,5.19-1.08-22.69,11.1-27.93,4.72.74,4.93,7.89,8.76,9.41a92.22,92.22,0,0,1,42.14-6.86c-16.13-7.22-24.71-21.8-8.17-34.55,5-2.48,2.95-7.92,4.45-11.87-11-.81-10.1-13.24-23.57-20.26-3.85-8.86,10.27-8.58,12.51-15.56,6.42-10.32,13.59.77,19.69,3.89,21.4-.43,18.47,0,15.61,18.2,3.65,6.1-2.13,8.74.15,11.61C1836.43,363,1845.45,356.58,1849.59,365.52Z"/><path d="M1761.11,503.59c-7.2,0-12.84-1.11-16.25-5.17-5.11-6.07-4.91-18.5.64-40.28a.38.38,0,0,1,.09-.18c.82-1.08,1.11-2,.86-2.64-.59-1.61-4.13-2.4-7.56-3.15-4.16-.92-8.47-1.88-9.38-4.54-.52-1.52.13-3.34,2-5.57a.4.4,0,0,1,.12-.1c4.09-2.61,9.65-5.51,16.26-4.77l.1,0c2.57.83,4.31.83,5.34,0,1.88-1.53,1.4-5.89.89-10.51-.76-6.91-1.62-14.74,4.53-17.39a.49.49,0,0,1,.27,0c2.82.44,4.12,2.87,5.38,5.23.94,1.77,1.84,3.45,3.3,4.13a93.18,93.18,0,0,1,39.6-7c-8.66-4.47-14.19-10.87-15-17.44-.7-5.92,2.42-11.75,9-16.84,3.16-1.58,3.35-4.31,3.54-7.21a18.14,18.14,0,0,1,.54-3.83c-5.54-.66-8.08-4.32-11-8.54-2.74-4-5.83-8.43-12.14-11.72a.53.53,0,0,1-.23-.24c-2.41-5.56,1.78-7.83,5.82-10,2.85-1.54,5.79-3.14,6.68-5.88a.61.61,0,0,1,.05-.12c1.65-2.65,3.45-4.11,5.5-4.45,3.47-.58,6.83,2.14,10.1,4.78a31.6,31.6,0,0,0,4.63,3.33c10.37-.21,15.06-.2,17,2,1.63,1.9,1,5.15,0,11-.3,1.63-.62,3.47-1,5.54,2.09,3.62,1,6.18.22,8.06-.6,1.42-.9,2.25-.36,3.12a31.68,31.68,0,0,0,4.6-1.27c5.1-1.66,11.44-3.73,14.72,3.34a.74.74,0,0,1,0,.14c.75,4.91-3.71,9.3-8,13.54-2.68,2.64-5.45,5.37-6.8,8.1a.5.5,0,0,1-.48.28.5.5,0,0,1-.44-.33c-2.16-6.05-5.27-9.25-8.78-9-4,.31-8.06,5.14-9.18,11-.56,2.92-1.05,10.11,6.42,13.75a.47.47,0,0,1,.27.33.51.51,0,0,1-.09.42c-22.44,29-28.5,66.63-15.83,98.24a.5.5,0,0,1-.51.69c-11.79-1.21-22.59-.37-32.11.36C1769.65,503.24,1765.14,503.59,1761.11,503.59Zm-14.67-45.11c-5.44,21.38-5.69,33.5-.82,39.3s15.52,5.12,28.84,4.09c9.35-.73,19.91-1.54,31.47-.45-12.34-31.61-6.27-69,15.9-98-5.23-2.82-7.63-8.22-6.42-14.55s5.62-11.47,10.08-11.82c2.22-.17,6.32.76,9.42,8.61a41.5,41.5,0,0,1,6.46-7.4c4.11-4,8.36-8.23,7.74-12.61-2.91-6.19-8.28-4.44-13.47-2.74a28.48,28.48,0,0,1-5.08,1.34.5.5,0,0,1-.45-.19c-1.16-1.46-.57-2.87.06-4.35.8-1.9,1.7-4-.25-7.32a.48.48,0,0,1-.07-.33c.34-2.15.68-4.05,1-5.73,1-5.59,1.55-8.67.23-10.21-1.61-1.89-6.43-1.88-16.31-1.68a.6.6,0,0,1-.24,0,30.9,30.9,0,0,1-4.91-3.5c-3.09-2.5-6.29-5.08-9.3-4.58-1.74.3-3.31,1.59-4.79,3.95-1,3.09-4.13,4.78-7.13,6.4-3.94,2.14-7.35,4-5.45,8.59,6.42,3.39,9.56,7.94,12.34,12,3,4.34,5.37,7.77,10.88,8.17a.5.5,0,0,1,.38.23.51.51,0,0,1,0,.45,14.32,14.32,0,0,0-.68,4.16c-.21,3-.42,6.2-4,8-6.23,4.82-9.23,10.33-8.57,15.88.8,6.8,7.06,13.44,16.73,17.77a.5.5,0,0,1,.28.58.49.49,0,0,1-.53.37,91.8,91.8,0,0,0-41.92,6.82.48.48,0,0,1-.37,0c-1.91-.75-3-2.74-4-4.66-1.17-2.19-2.27-4.27-4.5-4.69-5.32,2.41-4.51,9.79-3.8,16.3.57,5.11,1,9.53-1.24,11.4-1.31,1.06-3.35,1.13-6.24.2-6.25-.69-11.56,2.08-15.5,4.58-1.56,1.88-2.15,3.41-1.76,4.55.73,2.13,4.94,3.06,8.65,3.88,3.86.85,7.51,1.66,8.28,3.78C1747.76,456,1747.45,457.13,1746.44,458.48Z"/><path d="M1771,345.1c16-2.36,6.11,11.58,18.22,9.09,7.52,2.07,7.5,12.15,5.13,18.14-9.11,8.72-4.48,24.6-15.78,31.4-33.78,2.76-19.65,8.46-33.79-23.42-1.33-8.68,2.57-16.89,10.73-20.38C1763.3,357.68,1763.58,348,1771,345.1Z"/><path d="M1757.61,406.45c-4.17,0-4.82-1.78-6.68-7.88a145.52,145.52,0,0,0-6.66-18.06.56.56,0,0,1,0-.12c-1.4-9.24,2.92-17.45,11-20.92,4-1.14,5.88-4.14,7.92-7.32,1.92-3,3.89-6,7.59-7.52l.11,0c8.91-1.31,10.24,2.46,11.31,5.48.92,2.63,1.64,4.7,6.88,3.62a.59.59,0,0,1,.23,0,8.55,8.55,0,0,1,5.55,4.61c2.13,4.28,1.49,10.21-.09,14.19a.57.57,0,0,1-.12.18c-4.08,3.92-5.36,9.43-6.6,14.77-1.47,6.35-3,12.92-9.26,16.7a.57.57,0,0,1-.22.07c-6.17.5-10.8,1.11-14.18,1.56A58.63,58.63,0,0,1,1757.61,406.45Zm-12.4-26.28a146.44,146.44,0,0,1,6.68,18.11c2.38,7.83,2.39,7.83,12.36,6.52,3.37-.45,8-1.05,14.11-1.56,5.83-3.57,7.23-9.61,8.71-16,1.26-5.45,2.56-11.08,6.8-15.19,1.42-3.66,2.05-9.34.08-13.29a7.53,7.53,0,0,0-4.8-4.05c-6,1.19-7-1.6-7.91-4.29-1-3-2.11-6-10.16-4.83-3.36,1.35-5.15,4.14-7,7.1-2.06,3.19-4.19,6.5-8.44,7.72C1748,363.67,1743.91,371.43,1745.21,380.17Z"/><path class="cls-3" d="M1704.82,399.88c-.13-.71.44-1.78-.89-1.86C1743.73,384.34,1725.43,438,1704.82,399.88Z"/><path d="M1720,414.26c-3.52,0-9.25-2.32-15.65-14.15a.58.58,0,0,1-.05-.14,2.77,2.77,0,0,1,0-.76c0-.21,0-.51,0-.59s-.15-.09-.38-.1a.51.51,0,0,1-.47-.43.5.5,0,0,1,.34-.54c17.82-6.13,22.5,1.5,23.51,4,1.84,4.51-.13,10.16-4.2,12.08A7.07,7.07,0,0,1,1720,414.26Zm-14.73-14.54c8.49,15.64,15.43,13.9,17.35,13,3.62-1.71,5.35-6.76,3.71-10.8-.91-2.23-5.09-9-21.2-3.78a2.06,2.06,0,0,1,.16,1.16A2.16,2.16,0,0,0,1705.3,399.72Z"/><path class="cls-4" d="M1727.16,406.37c4.16,7.5,15.63,8.2,21.55,15.53-1.48-2.78-4.07-8.35,1.08-7.34,5.42,8.69,3.4,12.55,13.12,19.67.27,1.52-.33,2.13-1.79,1.85-7.8,1-2.88-10.68-17-5.56-3.16-2.07,1.07-3.09,3-3.93-4.27-4.59-10.53-6.61-13.77-11.86-4.8-3.61-8.14-4-7.15-11.14C1728,404,1726.82,405.46,1727.16,406.37Z"/><path d="M1760.17,436.65c-2.76,0-3.83-1.75-4.86-3.45-1.52-2.5-3.09-5.08-11-2.21a.49.49,0,0,1-.44-.06c-1-.64-1.43-1.28-1.36-1.95.14-1.21,1.93-1.88,3.51-2.47l.29-.11a38.93,38.93,0,0,0-5.56-4.32c-2.84-1.94-5.79-3.95-7.71-7-.86-.64-1.69-1.2-2.43-1.69-3.42-2.27-5.68-3.78-4.84-9.86a.49.49,0,0,1,.62-.41c1.58.39,1.39,1.57,1.27,2.28a2.14,2.14,0,0,0,0,.78c2.12,3.78,6.2,5.78,10.52,7.9a39.44,39.44,0,0,1,8.83,5.32c-.88-2.21-1-3.71-.3-4.61s1.66-1,3.22-.71a.5.5,0,0,1,.32.23A44.79,44.79,0,0,1,1754,422c1.66,4.06,3,7.27,9.21,11.85a.48.48,0,0,1,.2.32,2.22,2.22,0,0,1-.4,2.06,2,2,0,0,1-1.89.39A7.91,7.91,0,0,1,1760.17,436.65Zm-10-7.94c3.62,0,4.87,2.08,6,4s2,3.3,4.89,2.91h.16c.53.1.91.07,1.08-.1a1.23,1.23,0,0,0,.15-1c-6.34-4.69-7.68-8-9.38-12.17a45.53,45.53,0,0,0-3.59-7.32c-.75-.13-1.64-.14-2,.36s-.62,1.95,1.68,6.29a.5.5,0,0,1-.16.65.51.51,0,0,1-.67-.1c-2.73-3.39-6.74-5.35-10.62-7.25-4.48-2.2-8.71-4.27-11-8.35a.25.25,0,0,1,0-.07,2.69,2.69,0,0,1,0-1.32c.07-.43.11-.69,0-.86-.51,4.86,1.31,6.07,4.48,8.18.77.51,1.64,1.09,2.56,1.78a.53.53,0,0,1,.12.14c1.81,2.92,4.56,4.8,7.48,6.79a35.87,35.87,0,0,1,6.24,5,.48.48,0,0,1,.12.44.5.5,0,0,1-.29.36l-1,.39c-1,.39-2.8,1.05-2.86,1.65,0,.21.23.53.7.87A18.39,18.39,0,0,1,1750.14,428.71Z"/><path d="M1743.25,428.66c3.49,9.69-16.61,11.52-22.34,6.5C1722.49,429.22,1742.7,416,1743.25,428.66Z"/><path d="M1730.81,438.37c-4.09,0-8.08-.95-10.23-2.84a.52.52,0,0,1-.16-.5c1.16-4.33,12.28-12.85,18.76-12.15,2,.22,4.35,1.38,4.56,5.68,1,2.9.16,5.39-2.5,7.2S1734.7,438.37,1730.81,438.37Zm-9.32-3.38c4,3.17,14.43,3.19,19.19-.06,2.29-1.56,3-3.61,2.1-6.1a.4.4,0,0,1,0-.15c-.13-2.94-1.36-4.55-3.68-4.8C1733.26,423.25,1723,430.93,1721.49,435Z"/><path d="M1796.64,171.9c16.26,25.15,50,44.74,79.56,58.88-6.75-50.1,59.46-3.75,21.42,38.61-.25,2.07.81,1.42,1.79.92,14.69,21-27.66,106.43-58.94,70.74-3-9.29.76-17.08-9.69-23.31-5.11-16.06-14-10.4-12-21.23,5.7-18.55-23.4-10.32-19.34-26.95,5.34-10.22,2.42-27.35,17.33-27.36-4.42-1.78-15.39,0-15.75-6.37,11.27-2.07-17.77-21,19.11-8.79-8.82-7.46-24-3.76-25.44-17.47C1793.77,198.83,1792,181.33,1796.64,171.9Z"/><path d="M1857,350.62c-6.21,0-12.09-3-17.3-8.91a1.27,1.27,0,0,1-.2-.36,39.33,39.33,0,0,1-1.5-8.51c-.56-5.72-1-10.23-7.74-14.24a1,1,0,0,1-.45-.56c-2.45-7.72-5.7-10.13-8.31-12.07s-4.85-3.61-3.77-9.64l0-.11c2.67-8.69-2.76-10.78-9-13.2-5.85-2.25-12.48-4.8-10.3-13.69a.9.9,0,0,1,.08-.23c1.61-3.07,2.46-6.9,3.29-10.6,1.51-6.78,3.07-13.74,9.25-16.29h0c-4.8-.49-10.77-1.09-11.06-6.32a1,1,0,0,1,.81-1c1-.18,1.62-.51,1.85-1,.5-1-.58-3.13-1.44-4.83-1.18-2.33-2.3-4.54-1-6,.8-.93,2.35-1.38,6-.82-6-1.8-11.66-4.24-12.54-12.53l-.13-1.67c-.9-10.88-2.26-27.33,2.23-36.54a1,1,0,0,1,.84-.56,1,1,0,0,1,.9.46c12.84,19.85,38.2,38.74,77.5,57.73-1.54-14.76,3.68-19.14,7-20.43,6.39-2.47,15.56,2.3,21.8,11.34,8.21,11.9,11.16,31.07-4.91,49.45l.06,0a1,1,0,0,1,1.27.32c10.14,14.47-5.35,57.52-26.73,74.3C1867.91,348.43,1862.34,350.62,1857,350.62Zm-15.65-10.08c11.31,12.76,23,8.1,30.91,1.93,20-15.66,35.26-56.66,26.78-70.87a1.77,1.77,0,0,1-1.78,0c-.85-.59-.7-1.83-.64-2.3a.93.93,0,0,1,.25-.54c15.89-17.7,13.15-36.18,5.29-47.58-5.63-8.16-14-12.73-19.44-10.62-5.06,2-7,9.11-5.54,20.13a1,1,0,0,1-1.43,1c-39.55-18.93-65.4-37.82-78.93-57.69-3.39,9-2.16,23.82-1.33,33.84l.13,1.65c.83,7.84,6.51,9.48,13.09,11.37,4.18,1.21,8.51,2.46,12,5.41a1,1,0,0,1,.23,1.25,1,1,0,0,1-1.19.47c-14.89-4.94-17.59-4.21-18.06-3.67s.6,2.5,1.27,3.83c1.18,2.32,2.39,4.72,1.45,6.63a3.72,3.72,0,0,1-2.33,1.8c.73,2.58,4.3,3.15,9.14,3.64a23.52,23.52,0,0,1,5.85,1.05,1,1,0,0,1-.37,1.93c-9.46,0-11.09,7.3-13,15.74-.85,3.78-1.72,7.7-3.41,11-1.67,7.09,3.32,9,9.1,11.23,6.3,2.42,13.44,5.17,10.27,15.6-.85,4.75.44,5.71,3,7.61s6.27,4.66,8.91,12.72c7.3,4.49,7.83,9.87,8.39,15.56A37.84,37.84,0,0,0,1841.36,340.54Z"/><path class="cls-4" d="M1744.14,391.52c7,6.69,14.59,18.51,2.68,24.14C1735.14,416.67,1739.51,396.35,1744.14,391.52Z"/><path d="M1746,416.19a6.29,6.29,0,0,1-6-3.73c-2.85-6,.31-17.63,3.82-21.29a.51.51,0,0,1,.71,0c2.39,2.3,10.11,10.35,8.93,17.55-.51,3.15-2.66,5.64-6.39,7.4a.48.48,0,0,1-.17.05Zm-1.84-23.95c-3.13,3.78-5.86,14.45-3.31,19.79,1.1,2.3,3.06,3.35,5.83,3.14,3.36-1.61,5.29-3.84,5.75-6.62C1753.48,402.16,1746.81,394.85,1744.17,392.24Z"/><path class="cls-5" d="M1799.22,167.54c16.26,25.15,50,44.74,79.56,58.88-6.75-50.1,59.46-3.75,21.42,38.61-.25,2.07.81,1.42,1.79.92,14.69,21-27.66,106.43-58.94,70.74-3-9.29.76-17.08-9.69-23.31-5.11-16.06-14-10.4-12-21.23,5.7-18.55-23.4-10.32-19.34-26.95,5.34-10.22,2.42-27.35,17.33-27.36-4.42-1.78-15.39,0-15.75-6.37,11.27-2.07-17.77-21,19.11-8.79-8.82-7.46-24-3.76-25.44-17.47C1796.35,194.47,1794.62,177,1799.22,167.54Z"/><path d="M1859.59,346.26c-6.21,0-12.09-3-17.3-8.91a1.27,1.27,0,0,1-.2-.36,39.33,39.33,0,0,1-1.5-8.51c-.56-5.71-1-10.23-7.74-14.24a1,1,0,0,1-.45-.56c-2.45-7.72-5.7-10.13-8.31-12.07s-4.85-3.61-3.77-9.64l0-.11c2.67-8.69-2.76-10.78-9.06-13.2-5.84-2.25-12.47-4.8-10.29-13.69a.9.9,0,0,1,.08-.23c1.61-3.07,2.46-6.9,3.29-10.6,1.51-6.78,3.07-13.74,9.25-16.29h0c-4.8-.49-10.77-1.09-11.06-6.32a1,1,0,0,1,.81-1c1-.18,1.62-.51,1.85-1,.5-1-.58-3.13-1.44-4.83-1.18-2.33-2.3-4.54-1-6,.79-.93,2.34-1.39,6-.82-6-1.8-11.66-4.24-12.54-12.53l-.13-1.67c-.9-10.88-2.26-27.33,2.23-36.54a1,1,0,0,1,.84-.56,1,1,0,0,1,.9.46c12.84,19.85,38.2,38.75,77.51,57.73-1.55-14.76,3.67-19.14,7-20.43,6.39-2.48,15.56,2.3,21.8,11.34,8.21,11.9,11.16,31.07-4.91,49.45l.06,0a1,1,0,0,1,1.27.32c10.14,14.47-5.35,57.52-26.73,74.3C1870.49,344.07,1864.92,346.26,1859.59,346.26Zm-15.65-10.08c11.31,12.76,23,8.1,30.91,1.93,20-15.66,35.26-56.66,26.78-70.87a1.77,1.77,0,0,1-1.78,0c-.85-.59-.7-1.83-.64-2.29a.93.93,0,0,1,.25-.55c15.89-17.7,13.15-36.18,5.29-47.58-5.63-8.16-14-12.72-19.44-10.62-5.06,2-7,9.11-5.54,20.13a1,1,0,0,1-1.43,1c-39.55-18.92-65.4-37.81-78.93-57.68-3.38,9-2.16,23.82-1.33,33.84l.13,1.65c.83,7.84,6.51,9.48,13.09,11.37,4.18,1.21,8.51,2.46,12,5.41a1,1,0,0,1-1,1.72c-14.9-4.94-17.59-4.21-18.06-3.67s.6,2.5,1.27,3.83c1.18,2.32,2.39,4.72,1.45,6.63a3.72,3.72,0,0,1-2.33,1.8c.73,2.58,4.3,3.15,9.14,3.64a23.52,23.52,0,0,1,5.85,1,1,1,0,0,1-.37,1.93c-9.46,0-11.09,7.3-13,15.74-.85,3.78-1.72,7.7-3.41,11-1.67,7.09,3.32,9,9.1,11.23,6.3,2.42,13.44,5.17,10.27,15.6-.85,4.75.44,5.71,3,7.61s6.27,4.66,8.91,12.72c7.3,4.49,7.83,9.87,8.39,15.56A37.84,37.84,0,0,0,1843.94,336.18Z"/><path class="cls-6" d="M1905.89,240.74c2.32-9.57-6.34-34.29-16.91-20-1.56,4.95,8.75,10,3.24,11.6-29.21-26.36,25.2-33.86,14.57,12.1C1904.4,243.75,1905.53,242.14,1905.89,240.74Z"/><path class="cls-7" d="M1905.89,243.31c2.32-9.56-6.34-34.29-16.91-20-1.56,5,8.75,10,3.24,11.61-29.21-26.36,25.2-33.87,14.57,12.09C1904.4,246.32,1905.53,244.72,1905.89,243.31Z"/><path class="cls-5" d="M1853.27,365.26c1.17,7.66-11.23,14.19-14.78,21.35-9-25.16-30.16,7.66-12.22,16.4-21.5,27.76-29.09,65.82-15.9,98.73-44.88-4.59-77.06,20.42-60.71-43.74,7.1-9.28-24.25-3.7-14.1-15.88,4.86-3.1,10-5.36,15.94-4.69,16,5.19-1.08-22.69,11.11-27.93,4.72.74,4.93,7.89,8.75,9.41a92.24,92.24,0,0,1,42.15-6.86c-16.14-7.22-24.72-21.8-8.17-34.55,5-2.48,2.94-7.92,4.45-11.87-11-.81-10.1-13.24-23.57-20.26-3.85-8.86,10.26-8.58,12.51-15.56,6.42-10.32,13.59.77,19.68,3.89,21.41-.43,18.48,0,15.61,18.2,3.65,6.1-2.12,8.74.15,11.61C1840.11,362.77,1849.13,356.32,1853.27,365.26Z"/><path d="M1764.78,503.33c-7.19,0-12.84-1.12-16.25-5.17-5.1-6.07-4.91-18.5.64-40.28a.51.51,0,0,1,.09-.18c.82-1.08,1.12-2,.87-2.64-.59-1.61-4.13-2.4-7.56-3.15-4.17-.93-8.47-1.88-9.38-4.54-.52-1.52.13-3.34,2-5.57a.52.52,0,0,1,.11-.1c4.1-2.61,9.65-5.51,16.27-4.77l.1,0c2.56.83,4.31.83,5.34,0,1.87-1.53,1.39-5.89.89-10.52-.76-6.9-1.62-14.74,4.52-17.38a.45.45,0,0,1,.28,0c2.81.44,4.11,2.87,5.37,5.23,1,1.77,1.84,3.45,3.31,4.13a93.15,93.15,0,0,1,39.6-7c-8.66-4.47-14.2-10.87-15-17.44-.7-5.92,2.43-11.75,9-16.84,3.17-1.58,3.35-4.32,3.55-7.21a18.8,18.8,0,0,1,.53-3.83c-5.54-.66-8.07-4.32-11-8.54-2.73-3.95-5.83-8.43-12.13-11.72a.53.53,0,0,1-.23-.24c-2.41-5.56,1.77-7.83,5.82-10,2.85-1.54,5.79-3.14,6.67-5.88a.61.61,0,0,1,0-.12c1.65-2.65,3.45-4.11,5.51-4.45,3.46-.59,6.83,2.14,10.09,4.78a32.14,32.14,0,0,0,4.63,3.33c10.38-.21,15.06-.2,17,2,1.63,1.9,1,5.15,0,11-.29,1.63-.62,3.47-1,5.54,2.1,3.62,1,6.18.23,8.05-.6,1.43-.91,2.26-.36,3.13a32,32,0,0,0,4.6-1.27c5.09-1.66,11.44-3.73,14.71,3.34a.37.37,0,0,1,0,.14c.76,4.91-3.7,9.3-8,13.54-2.68,2.64-5.45,5.37-6.81,8.1a.48.48,0,0,1-.47.28.51.51,0,0,1-.45-.33c-2.15-6-5.26-9.24-8.78-9-4,.31-8.06,5.14-9.18,11-.55,2.92-1,10.11,6.43,13.75a.53.53,0,0,1,.27.33.49.49,0,0,1-.1.42c-22.43,29-28.5,66.63-15.82,98.24a.51.51,0,0,1-.52.69c-11.79-1.21-22.58-.37-32.11.36C1773.33,503,1768.81,503.33,1764.78,503.33Zm-14.66-45.11c-5.44,21.38-5.69,33.5-.82,39.29,5,5.94,15.51,5.13,28.84,4.09,9.34-.72,19.91-1.53,31.47-.44-12.34-31.61-6.28-69,15.9-98-5.24-2.82-7.64-8.22-6.43-14.56s5.63-11.46,10.08-11.81c2.23-.17,6.33.76,9.42,8.61a41.58,41.58,0,0,1,6.47-7.4c4.11-4,8.35-8.23,7.73-12.61-2.9-6.19-8.27-4.44-13.46-2.74a28.7,28.7,0,0,1-5.08,1.34.52.52,0,0,1-.46-.19c-1.15-1.46-.56-2.87.07-4.35.8-1.9,1.7-4-.26-7.32a.48.48,0,0,1-.06-.33c.34-2.15.68-4.05,1-5.73,1-5.59,1.54-8.67.22-10.21-1.61-1.89-6.43-1.88-16.31-1.68a.64.64,0,0,1-.23-.05,31.6,31.6,0,0,1-4.92-3.5c-3.09-2.5-6.28-5.09-9.3-4.58-1.74.3-3.3,1.59-4.79,3.95-1,3.09-4.12,4.77-7.12,6.4-3.94,2.14-7.35,4-5.45,8.59,6.42,3.39,9.56,7.93,12.33,11.95,3,4.34,5.37,7.77,10.88,8.17a.52.52,0,0,1,.39.23.51.51,0,0,1,0,.45,14.67,14.67,0,0,0-.67,4.16c-.21,3-.42,6.2-4,8-6.24,4.82-9.23,10.33-8.57,15.88.8,6.8,7,13.44,16.72,17.77a.49.49,0,0,1,.28.58.47.47,0,0,1-.52.37,91.78,91.78,0,0,0-41.92,6.82.48.48,0,0,1-.37,0c-1.91-.76-3-2.74-4-4.66-1.17-2.19-2.28-4.27-4.51-4.69-5.31,2.41-4.5,9.79-3.79,16.3.56,5.11,1,9.53-1.25,11.39-1.31,1.07-3.34,1.13-6.23.21-6.24-.68-11.56,2.08-15.51,4.58-1.55,1.88-2.14,3.41-1.76,4.54.73,2.14,4.94,3.07,8.65,3.89,3.87.85,7.51,1.66,8.29,3.78C1751.44,455.73,1751.13,456.87,1750.12,458.22Z"/><path class="cls-8" d="M1816.53,348.51c-3.91.32-11.56-2.17-9.85-7.32C1812.46,335.33,1831.06,347.16,1816.53,348.51Z"/><path class="cls-9" d="M1773.37,345.63c16-2.36,6.11,11.57,18.22,9.09,7.52,2.06,7.5,12.15,5.13,18.14-9.11,8.72-4.48,24.59-15.78,31.4-33.78,2.75-19.65,8.45-33.79-23.42-1.33-8.69,2.57-16.9,10.73-20.39C1765.72,358.2,1766,348.55,1773.37,345.63Z"/><path d="M1760,407c-4.17,0-4.82-1.78-6.68-7.88a144.34,144.34,0,0,0-6.66-18.06.5.5,0,0,1,0-.13c-1.4-9.23,2.92-17.45,11-20.92,4-1.13,5.88-4.14,7.92-7.32,1.92-3,3.89-6,7.59-7.51l.11,0c8.91-1.31,10.24,2.45,11.3,5.48.93,2.62,1.66,4.7,6.89,3.62a.45.45,0,0,1,.23,0,8.47,8.47,0,0,1,5.54,4.6c2.14,4.29,1.5,10.22-.08,14.2a.57.57,0,0,1-.12.18c-4.08,3.91-5.36,9.43-6.6,14.77-1.47,6.35-3,12.91-9.26,16.69a.44.44,0,0,1-.22.07c-6.17.51-10.8,1.12-14.18,1.56A57.09,57.09,0,0,1,1760,407Zm-12.4-26.28a145.84,145.84,0,0,1,6.68,18.11c2.38,7.83,2.38,7.83,12.36,6.51,3.37-.44,8-1.05,14.11-1.55,5.83-3.57,7.23-9.61,8.71-16,1.26-5.44,2.56-11.07,6.8-15.19,1.42-3.65,2-9.33.08-13.28a7.57,7.57,0,0,0-4.8-4.06c-6,1.19-7-1.59-7.91-4.29-1-2.95-2.11-6-10.16-4.83-3.36,1.36-5.15,4.15-7.06,7.1-2,3.2-4.18,6.5-8.43,7.72C1750.42,364.19,1746.32,372,1747.63,380.7Z"/><path class="cls-10" d="M1779.1,371.38c.68,6.64-11.36,23.92-16,12.18C1758,375.55,1777.63,355,1779.1,371.38Z"/><path class="cls-11" d="M1727.35,405.3c4.16,7.5,15.63,8.2,21.55,15.53-1.48-2.78-4.07-8.35,1.08-7.34,5.42,8.68,3.4,12.55,13.12,19.67.27,1.52-.33,2.13-1.79,1.85-7.8,1-2.88-10.68-17-5.57-3.16-2.06,1.07-3.08,3.05-3.92-4.27-4.59-10.52-6.61-13.77-11.86-4.8-3.61-8.14-4-7.15-11.14C1728.18,403,1727,404.39,1727.35,405.3Z"/><path d="M1760.36,435.58c-2.76,0-3.83-1.75-4.86-3.45-1.52-2.5-3.09-5.08-11-2.22a.46.46,0,0,1-.44-.05c-1-.64-1.43-1.28-1.36-1.95.14-1.21,1.93-1.88,3.51-2.48l.29-.1A38.84,38.84,0,0,0,1741,421c-2.85-1.94-5.8-3.95-7.72-7-.86-.64-1.69-1.2-2.43-1.69-3.42-2.27-5.68-3.78-4.84-9.86a.5.5,0,0,1,.62-.42c1.58.4,1.39,1.58,1.27,2.29a2.14,2.14,0,0,0,0,.78c2.12,3.78,6.2,5.78,10.52,7.9a39.44,39.44,0,0,1,8.83,5.32c-.88-2.21-1-3.71-.3-4.61s1.66-1,3.22-.71a.5.5,0,0,1,.32.23,44.79,44.79,0,0,1,3.78,7.67c1.66,4.06,3,7.27,9.21,11.85a.48.48,0,0,1,.2.32,2.23,2.23,0,0,1-.4,2.06,2.08,2.08,0,0,1-1.89.39A8,8,0,0,1,1760.36,435.58Zm-10-7.94c3.62,0,4.88,2.08,6,4s2,3.3,4.88,2.91h.17c.53.1.91.07,1.08-.1a1.23,1.23,0,0,0,.15-1c-6.34-4.69-7.68-8-9.38-12.17a45.53,45.53,0,0,0-3.59-7.32c-.75-.13-1.64-.14-2,.36s-.62,1.95,1.68,6.29a.5.5,0,0,1-.16.65.51.51,0,0,1-.67-.1c-2.73-3.39-6.74-5.36-10.62-7.26-4.48-2.19-8.71-4.26-11-8.34l0-.07a2.69,2.69,0,0,1,0-1.32c.08-.44.11-.69,0-.87-.51,4.87,1.31,6.08,4.48,8.19.77.51,1.64,1.09,2.56,1.78a.41.41,0,0,1,.12.14c1.81,2.92,4.56,4.8,7.48,6.79a36.28,36.28,0,0,1,6.24,5,.49.49,0,0,1,.12.45.5.5,0,0,1-.29.36l-1,.39c-1,.39-2.8,1.05-2.86,1.64,0,.22.23.54.7.88A18.12,18.12,0,0,1,1750.32,427.64Z"/><path class="cls-12" d="M1704.82,398.76c-.13-.71.44-1.78-.89-1.86C1743.73,383.23,1725.43,436.84,1704.82,398.76Z"/><path d="M1720,413.15c-3.52,0-9.25-2.33-15.65-14.15a.88.88,0,0,1-.05-.15,2.7,2.7,0,0,1,0-.75c0-.22,0-.52,0-.6s-.15-.09-.38-.1a.49.49,0,0,1-.47-.43.5.5,0,0,1,.34-.54c17.82-6.13,22.5,1.5,23.51,4,1.84,4.52-.13,10.16-4.2,12.09A7.22,7.22,0,0,1,1720,413.15ZM1705.3,398.6c8.49,15.64,15.43,13.9,17.35,13,3.62-1.71,5.35-6.75,3.71-10.8-.91-2.23-5.09-9-21.2-3.77a2,2,0,0,1,.16,1.15A2.16,2.16,0,0,0,1705.3,398.6Z"/><path class="cls-13" d="M1745,391.31c7,6.69,14.58,18.51,2.68,24.14C1736,416.46,1740.4,396.14,1745,391.31Z"/><path d="M1746.91,416a6.3,6.3,0,0,1-6.06-3.73c-2.85-6,.31-17.63,3.83-21.29a.5.5,0,0,1,.7,0c2.4,2.3,10.11,10.35,8.94,17.55-.52,3.15-2.67,5.64-6.39,7.4l-.17.05Zm-1.85-24c-3.12,3.78-5.86,14.45-3.3,19.79,1.1,2.29,3,3.35,5.82,3.14,3.36-1.61,5.3-3.84,5.75-6.62C1754.37,402,1747.7,394.64,1745.06,392Z"/><path class="cls-14" d="M1743.25,427.73c3.49,9.69-16.61,11.52-22.34,6.5C1722.49,428.29,1742.7,415,1743.25,427.73Z"/><path d="M1730.81,437.44c-4.09,0-8.08-.95-10.23-2.84a.52.52,0,0,1-.16-.5c1.16-4.33,12.29-12.84,18.76-12.15,2,.22,4.35,1.38,4.56,5.68,1,2.9.16,5.39-2.5,7.2S1734.7,437.44,1730.81,437.44Zm-9.32-3.38c4,3.17,14.43,3.19,19.19-.06a4.82,4.82,0,0,0,2.1-6.11.32.32,0,0,1,0-.14c-.13-2.94-1.36-4.55-3.68-4.8C1733.26,422.33,1723,430,1721.49,434.06Z"/></g></g></svg>